<?xml version="1.0" encoding="utf-8"?>
<!-- Generator: Adobe Illustrator 28.0.0, SVG Export Plug-In . SVG Version: 6.00 Build 0)  -->
<svg version="1.1" id="Слой_1" xmlns="http://www.w3.org/2000/svg" xmlns:xlink="http://www.w3.org/1999/xlink" x="0px" y="0px"
	 viewBox="0 0 1000 1000" enable-background="new 0 0 1000 1000" xml:space="preserve">
<path fill-rule="evenodd" clip-rule="evenodd" fill="#000001" d="M500,0c276.1218262,0,500,223.8403168,500,500
	c0,276.1593628-223.8781738,500-500,500C223.8771973,1000,0,776.1218262,0,500C0.0000314,223.8771973,223.8771973,0.0000314,500,0z
	 M911.703125,378.8250122c-12.6343384,87.6312561-57.1812744,159.9468384-94.3469238,207.0031128
	c-57.359314,70.65625-134.203064,131.828125-222.3842773,177.03125
	c-87.2250366,44.7218628-181.578186,71.8875122-272.8406677,78.5562744
	c-15.4475098,0.890625-29.7947083,1.3311768-43.2412415,1.3311768c-16.0025024,0-30.7562714-0.640625-44.759079-1.8999023
	c73.1806183,57.3218384,165.3878326,91.499939,265.5440674,91.499939l-0.0562744-0.0562744
	c238.0687561,0,431.1000061-192.999939,431.1000061-431.0686951c0-41.3156433-5.828125-81.2562561-16.6843872-119.0875244
	C913.2562256,381.0218811,912.4812622,379.8999939,911.703125,378.8250122z M561.3343506,45.6000023
	c-147.2843323,0-281.1668701,60.73843-358.1281128,162.4078064l-0.4881287,0.5968781
	c-33.2709351,40.5328217-55.3865662,84.9996796-63.910614,128.6078033
	c-4.8540802,26.53125-3.9568939,50.8968811,2.7127991,72.1312561v-0.0562439
	c15.8215637,47.5031128,54.3062439,85.5968628,97.9543762,96.7875061
	c18.1562653,4.5218506,35.6100006,6.4124756,51.8393707,5.671875l4.2859497-0.3812256
	C405.9468689,502.4718628,504.34375,432.9312439,586.046875,366.046875
	c51.1312256-42.7937622,100.0405884-99.4146729,103.1906128-135.9850006
	C617.9468384,264.6322021,544.3500366,309.6121826,459.5,370.4156189
	c-9.4125061,6.7062378-22.2406311,4.828125-29.2437439-4.2875061
	c-42.1281128-54.5405884-78.8125305-98.8321838-115.53125-139.2943726
	c-3.9968872-4.4449921-5.9906311-10.4062347-5.3987427-16.3302917c0.555603-5.9284515,3.6299744-11.4168854,8.4081116-14.9740753
	C430.2281189,111.1612473,542.125,63.3568764,650.6875,53.2768745
	C621.5718994,48.1650009,591.7124634,45.6006279,561.3343506,45.6000023z"/>
</svg>
