<svg xmlns="http://www.w3.org/2000/svg" viewBox="0 0 24 24">
  <path d="M2.886 10.449a.64.64 0 0 1 .078.848L1.337 13.56a.32.32 0 0 1-.526-.036A11.044 11.044 0 0 1 .103 11.53a.32.32 0 0 1 .238-.37l2.186-.535a.64.64 0 0 1 .36-.176zm-.803 3.753a.32.32 0 0 0-.492.097 11.127 11.127 0 0 0-.747 2.148.32.32 0 0 0 .108.331l1.638 1.319a.32.32 0 0 0 .476-.07l1.18-1.87a.64.64 0 0 0-.033-.733L2.083 14.2zm.79 5.275a.32.32 0 0 0-.42.02l-.367.354a.32.32 0 0 0-.022.43 11.18 11.18 0 0 0 2.854 2.67.32.32 0 0 0 .42-.044l.404-.431a.32.32 0 0 0-.006-.445L2.873 19.477zM7.55 22.553a.32.32 0 0 0 .014.458l.28.232a.32.32 0 0 0 .427-.023 11.2 11.2 0 0 0 3.084-4.807.32.32 0 0 0-.19-.394l-.672-.25a.32.32 0 0 0-.405.18A9.614 9.614 0 0 1 7.55 22.553zM23.988 12c0 6.627-5.373 12-12 12-.742 0-1.47-.067-2.176-.197a.32.32 0 0 1-.218-.494L22.006 8.523a.32.32 0 0 1 .552.108c.283.882.43 1.818.43 2.79V12zm-.836-4.488a.32.32 0 0 0-.56-.05L10.163 22.68a.32.32 0 0 0 .096.472c.83.43 1.73.74 2.679.914a.32.32 0 0 0 .333-.14L23.195 8.204a.32.32 0 0 0-.043-.412v-.28zM20.684 5.216a.32.32 0 0 0 .484.013l.257-.269a.32.32 0 0 0 .017-.427A11.955 11.955 0 0 0 12 .007C5.373.007 0 5.38 0 12.007c0 .414.021.824.063 1.229a.32.32 0 0 0 .547.197l18.13-20.07a.32.32 0 0 1 .453-.014l1.49 1.368v.5z" fill="#5E6AD2"/>
</svg>
