<svg xmlns="http://www.w3.org/2000/svg" viewBox="0 0 24 24">
  <path d="M15.535 8.465l-1.263 1.264a4.502 4.502 0 0 0-4.544 0L8.465 8.465a6.51 6.51 0 0 1 2.534-1.796V4.5h2v2.17a6.51 6.51 0 0 1 2.536 1.795zM12 10.5a1.5 1.5 0 1 0 0 3 1.5 1.5 0 0 0 0-3zm3.535 5.035l1.263-1.264a6.51 6.51 0 0 1-1.796 2.536V19h-2v-2.17a6.51 6.51 0 0 1-2.534-1.795l1.263-1.264a4.502 4.502 0 0 0 4.544 0h-.74zM19 11h-2.17a6.51 6.51 0 0 1-1.795 2.534l1.264 1.263a4.502 4.502 0 0 0 0-4.544l-1.264 1.263A6.51 6.51 0 0 1 16.831 11H19v2zm-12.17 2H5v-2h2.17a6.51 6.51 0 0 1 1.795-2.534L7.7 7.203a4.502 4.502 0 0 0 0 4.544l1.264-1.263A6.51 6.51 0 0 1 7.17 13H6.83z" fill="#FF4A00"/>
</svg>
